<svg xmlns="http://www.w3.org/2000/svg" viewBox="0 0 16 16" shape-rendering="crispEdges"><path fill="#1d2b26" d="M7 0h2v1h-2zM6 1h1v1h-1zM9 1h1v1h-1zM5 2h6v1h-6zM4 3h1v1h-1zM11 3h1v1h-1zM3 4h1v1h-1zM12 4h1v1h-1zM3 5h1v1h-1zM12 5h1v1h-1zM3 6h1v1h-1zM12 6h1v1h-1zM3 7h1v1h-1zM12 7h1v1h-1zM2 8h1v1h-1zM13 8h1v1h-1zM2 9h1v1h-1zM13 9h1v1h-1zM1 10h1v1h-1zM14 10h1v1h-1zM1 11h14v1h-14zM1 12h1v1h-1zM14 12h1v1h-1zM1 13h14v1h-14zM6 14h1v1h-1zM9 14h1v1h-1zM7 15h2v1h-2z"/><path fill="#ffcb3d" d="M7 1h2v1h-2zM5 3h1v1h-1zM7 3h4v1h-4zM4 4h1v1h-1zM6 4h5v1h-5zM4 5h1v1h-1zM6 5h5v1h-5zM4 6h7v1h-7zM4 7h7v1h-7zM3 8h9v1h-9zM3 9h9v1h-9zM2 10h11v1h-11zM7 14h1v1h-1z"/><path fill="#fff1a6" d="M6 3h1v1h-1zM5 4h1v1h-1zM5 5h1v1h-1z"/><path fill="#e0951c" d="M11 4h1v1h-1zM11 5h1v1h-1zM11 6h1v1h-1zM11 7h1v1h-1zM12 8h1v1h-1zM12 9h1v1h-1zM13 10h1v1h-1zM2 12h12v1h-12zM8 14h1v1h-1z"/></svg>
