<svg xmlns="http://www.w3.org/2000/svg" viewBox="0 0 16 16" shape-rendering="crispEdges"><path fill="#1d2b26" d="M13 0h1v1h-1zM12 1h1v1h-1zM14 1h1v1h-1zM11 2h1v1h-1zM15 2h1v1h-1zM4 3h6v1h-6zM12 3h1v1h-1zM14 3h1v1h-1zM4 4h1v1h-1zM9 4h1v1h-1zM12 4h1v1h-1zM14 4h1v1h-1zM4 5h1v1h-1zM9 5h1v1h-1zM11 5h1v1h-1zM15 5h1v1h-1zM4 6h1v1h-1zM9 6h1v1h-1zM12 6h1v1h-1zM14 6h1v1h-1zM3 7h8v1h-8zM13 7h1v1h-1zM0 8h16v1h-16zM0 9h1v1h-1zM15 9h1v1h-1zM0 10h1v1h-1zM15 10h1v1h-1zM0 11h16v1h-16zM1 12h1v1h-1zM3 12h1v1h-1zM12 12h1v1h-1zM14 12h1v1h-1zM1 13h1v1h-1zM3 13h1v1h-1zM12 13h1v1h-1zM14 13h1v1h-1zM1 14h1v1h-1zM3 14h1v1h-1zM12 14h1v1h-1zM14 14h1v1h-1zM0 15h5v1h-5zM11 15h5v1h-5z"/><path fill="#38a872" d="M13 1h1v1h-1zM12 2h3v1h-3zM13 3h1v1h-1zM13 4h1v1h-1zM12 5h3v1h-3zM13 6h1v1h-1z"/><path fill="#e3e8ec" d="M5 4h4v1h-4zM5 5h1v1h-1zM8 5h1v1h-1zM5 6h4v1h-4z"/><path fill="#a9d2f7" d="M6 5h2v1h-2z"/><path fill="#e6b884" d="M1 9h14v1h-14z"/><path fill="#c98a52" d="M1 10h14v1h-14z"/><path fill="#6b7680" d="M2 12h1v1h-1zM13 12h1v1h-1zM2 13h1v1h-1zM13 13h1v1h-1zM2 14h1v1h-1zM13 14h1v1h-1z"/></svg>
