<svg xmlns="http://www.w3.org/2000/svg" viewBox="0 0 16 16" shape-rendering="crispEdges"><path fill="#1d2b26" d="M1 2h2v1h-2zM7 2h2v1h-2zM13 2h2v1h-2zM1 3h1v1h-1zM3 3h1v1h-1zM6 3h1v1h-1zM9 3h1v1h-1zM12 3h1v1h-1zM14 3h1v1h-1zM1 4h1v1h-1zM4 4h1v1h-1zM6 4h1v1h-1zM9 4h1v1h-1zM11 4h1v1h-1zM14 4h1v1h-1zM1 5h1v1h-1zM5 5h1v1h-1zM10 5h1v1h-1zM14 5h1v1h-1zM1 6h1v1h-1zM14 6h1v1h-1zM1 7h1v1h-1zM14 7h1v1h-1zM1 8h1v1h-1zM14 8h1v1h-1zM1 9h1v1h-1zM14 9h1v1h-1zM1 10h14v1h-14zM1 11h1v1h-1zM14 11h1v1h-1zM1 12h14v1h-14z"/><path fill="#ffcb3d" d="M2 3h1v1h-1zM7 3h2v1h-2zM13 3h1v1h-1zM2 4h2v1h-2zM7 4h2v1h-2zM12 4h2v1h-2zM2 5h3v1h-3zM6 5h4v1h-4zM11 5h3v1h-3zM2 6h1v1h-1zM4 6h10v1h-10zM2 7h1v1h-1zM4 7h9v1h-9zM2 8h1v1h-1zM4 8h3v1h-3zM9 8h3v1h-3zM2 9h11v1h-11z"/><path fill="#fff1a6" d="M3 6h1v1h-1zM3 7h1v1h-1z"/><path fill="#e0951c" d="M13 7h1v1h-1zM13 8h1v1h-1zM13 9h1v1h-1zM2 11h12v1h-12z"/><path fill="#e5484d" d="M3 8h1v1h-1zM12 8h1v1h-1z"/><path fill="#3b82d6" d="M7 8h2v1h-2z"/></svg>
