<svg xmlns="http://www.w3.org/2000/svg" viewBox="0 0 16 16" shape-rendering="crispEdges"><path fill="#1d2b26" d="M1 3h6v1h-6zM8 3h6v1h-6zM0 4h1v1h-1zM6 4h3v1h-3zM14 4h1v1h-1zM0 5h1v1h-1zM7 5h1v1h-1zM14 5h1v1h-1zM0 6h1v1h-1zM7 6h1v1h-1zM14 6h1v1h-1zM0 7h1v1h-1zM7 7h1v1h-1zM14 7h1v1h-1zM0 8h1v1h-1zM7 8h1v1h-1zM14 8h1v1h-1zM0 9h1v1h-1zM7 9h1v1h-1zM14 9h1v1h-1zM0 10h1v1h-1zM7 10h1v1h-1zM14 10h1v1h-1zM0 11h1v1h-1zM7 11h1v1h-1zM14 11h1v1h-1zM0 12h7v1h-7zM8 12h7v1h-7zM1 13h1v1h-1zM13 13h1v1h-1zM2 14h11v1h-11z"/><path fill="#ffffff" d="M1 4h5v1h-5zM9 4h5v1h-5zM1 5h1v1h-1zM5 5h2v1h-2zM8 5h2v1h-2zM13 5h1v1h-1zM1 6h6v1h-6zM8 6h6v1h-6zM1 7h1v1h-1zM6 7h1v1h-1zM8 7h1v1h-1zM13 7h1v1h-1zM1 8h6v1h-6zM8 8h6v1h-6zM1 9h1v1h-1zM6 9h1v1h-1zM8 9h1v1h-1zM13 9h1v1h-1zM1 10h6v1h-6zM8 10h5v1h-5z"/><path fill="#a8b2ba" d="M2 5h3v1h-3zM10 5h3v1h-3zM2 7h4v1h-4zM9 7h4v1h-4zM2 9h4v1h-4zM9 9h4v1h-4z"/><path fill="#e3e8ec" d="M13 10h1v1h-1zM1 11h6v1h-6zM8 11h6v1h-6z"/><path fill="#3b82d6" d="M7 12h1v1h-1zM2 13h11v1h-11z"/></svg>
