<svg xmlns="http://www.w3.org/2000/svg" viewBox="0 0 16 16" shape-rendering="crispEdges"><path fill="#38a872" d="M7 0h2v1h-2zM6 1h4v1h-4zM7 2h2v1h-2z"/><path fill="#1d2b26" d="M5 1h1v1h-1zM10 1h1v1h-1zM6 2h1v1h-1zM9 2h1v1h-1zM7 3h2v1h-2zM2 4h1v1h-1zM13 4h1v1h-1zM3 5h1v1h-1zM12 5h1v1h-1zM6 6h4v1h-4zM5 7h1v1h-1zM10 7h1v1h-1zM1 8h1v1h-1zM4 8h1v1h-1zM11 8h1v1h-1zM14 8h1v1h-1zM3 9h1v1h-1zM12 9h1v1h-1zM2 10h1v1h-1zM13 10h1v1h-1zM0 11h16v1h-16zM0 12h1v1h-1zM15 12h1v1h-1zM0 13h1v1h-1zM15 13h1v1h-1zM0 14h16v1h-16z"/><path fill="#ff8a3d" d="M6 7h4v1h-4zM5 8h1v1h-1zM8 8h2v1h-2zM4 9h1v1h-1zM6 9h5v1h-5zM3 10h9v1h-9z"/><path fill="#ffcb3d" d="M6 8h2v1h-2zM5 9h1v1h-1z"/><path fill="#d65f1d" d="M10 8h1v1h-1zM11 9h1v1h-1zM12 10h1v1h-1z"/><path fill="#5f44a8" d="M1 12h14v1h-14z"/><path fill="#9171e0" d="M1 13h14v1h-14z"/></svg>
